<?xml version="1.0" encoding="utf-8"?>
<!-- Generator: Adobe Illustrator 19.1.0, SVG Export Plug-In . SVG Version: 6.00 Build 0)  -->
<svg version="1.1" id="Layer_2" xmlns="http://www.w3.org/2000/svg" xmlns:xlink="http://www.w3.org/1999/xlink" x="0px" y="0px"
	 viewBox="0 0 1200 700" style="enable-background:new 0 0 1200 700;" xml:space="preserve">
<style type="text/css">
	.st0{stroke:#000000;stroke-miterlimit:10;}
</style>
<ellipse class="st0" cx="396.5" cy="78" rx="38.5" ry="52.1"/>
<circle class="st0" cx="397.1" cy="31.6" r="26.6"/>
<ellipse transform="matrix(0.9991 4.198331e-02 -4.198331e-02 0.9991 3.9217 -15.2768)" class="st0" cx="365.7" cy="85.7" rx="10.7" ry="37.9"/>
<ellipse transform="matrix(-0.9837 0.1797 -0.1797 -0.9837 872.0618 85.874)" class="st0" cx="432.1" cy="82.4" rx="10.2" ry="37.9"/>
<path class="st0" d="M381.1,18.4c0,7.3-2.2,13.3-4.8,13.3c-8,0-4.8-5.9-4.8-13.3s2.2-13.3,4.8-13.3S381.1,11,381.1,18.4z"/>
<ellipse class="st0" cx="418.1" cy="16.5" rx="4.9" ry="10.4"/>
<ellipse class="st0" cx="388.2" cy="131" rx="3.1" ry="7.4"/>
<ellipse class="st0" cx="404.4" cy="131" rx="2.6" ry="7.4"/>
<ellipse class="st0" cx="388.3" cy="139.7" rx="8.3" ry="3.7"/>
<ellipse class="st0" cx="407.3" cy="138.9" rx="8.3" ry="2.9"/>
<path class="st0" d="M342,143.4c0,0,67.8-15.4,116.7,16.9l-4.2,75c0,0-2.7-79.2-108.1-91.2C342.3,143.6,343,146.4,342,143.4z"/>
<path class="st0" d="M555.6,209.2c0,0,79.2-32.3,95.8-75.8v25.8c0,0-74,101-101,99L555.6,209.2z"/>
<ellipse transform="matrix(0.9973 7.402552e-02 -7.402552e-02 0.9973 43.2946 -72.1608)" class="st0" cx="995.1" cy="548" rx="93.7" ry="76.2"/>
<ellipse class="st0" cx="1069.4" cy="548.9" rx="57" ry="71.9"/>
<ellipse class="st0" cx="914" cy="545.5" rx="45.2" ry="73.8"/>
<path class="st0" d="M1128.5,579.3c10.7,48.6,12.3,89.9,3.7,92.3c-8.7,2.4-24.4-35-35-83.5s-12.3-89.9-3.7-92.3
	C1102.2,493.3,1117.8,530.7,1128.5,579.3z"/>
<ellipse class="st0" cx="890.1" cy="523" rx="42.9" ry="59.8"/>
<path class="st0" d="M879.5,593.1l33.7,25.5c0,0,14.3,36.4-3.3,66.6c0,0-21.8,4.4-18.5,14.7H933c0,0-1.2-43.2,6.6-53.4
	c0,0,16-31,8.9-53.4"/>
<path class="st0" d="M900.5,570.7h-17.3l13.9,82.3c0,0-5.5,27.5-10.6,37.5c-5.2,10-13.9-7-15.3,9.5h32c0,0,18.8-46,5.2-89.2
	S900.5,570.7,900.5,570.7z"/>
<path class="st0" d="M1108.8,562c0,0,17.4-0.7-20,90c0,0,0.7,40.9,7,48h-18.7c0,0-23.1-73.9-13.7-106.9S1108.8,562,1108.8,562z"/>
<ellipse transform="matrix(0.8474 -0.5309 0.5309 0.8474 -136.7549 533.5424)" class="st0" cx="860" cy="504.7" rx="51.9" ry="34.1"/>
<ellipse class="st0" cx="866.1" cy="485.4" rx="51.7" ry="48.5"/>
<path class="st0" d="M885.3,445.7c0,0,30.7-9.1,65.1,39.7V523L885.3,445.7z"/>
<path class="st0" d="M843.1,460.8c0,0-12.8-20.1-25.7-23.8c-12.9-3.8,0,34.8,0,34.8L843.1,460.8z"/>
<path class="st0" d="M866.8,456.8c0,0,15.9-25.8,25.3-24.1s3.1,40.3,3.1,40.3L866.8,456.8z"/>
<path class="st0" d="M860,554.5c0,0-3.7,25.2,32.3,48.3S860,554.5,860,554.5z"/>
<path class="st0" d="M1112.8,607.4c0,0-14.5,71.6-6,86.2c8.5,14.6,41.6-32.3,41.6-32.3L1112.8,607.4z"/>
<path class="st0" d="M1157.8,761.9"/>
<path class="st0" d="M1124.5,548.5c0,0,31.4,24.7,19.1,94.4c-12.4,69.7-23.5-80.9-23.5-80.9"/>
<ellipse class="st0" cx="587.2" cy="676.2" rx="32.1" ry="20.7"/>
<path class="st0" d="M632.9,669c0,8.6-6.8,15.7-15.2,15.7c-8.4,0-15.2-7-15.2-15.7c0-3.8,1.3-7.3,3.6-10.1c2.8-3.4,7-5.6,11.7-5.6
	C626.1,653.4,632.9,660.4,632.9,669z"/>
<path class="st0" d="M601.4,638.3c16.9-11.5,10.9,27.5,10.9,27.5S574,656.9,601.4,638.3z"/>
<path class="st0" d="M620.8,660.6c0,0,0.5-37.3,19.5-20.9c0,0,8.9,12.1,2.2,20.9c0,0-11.5,5.8-18.6,5.7L620.8,660.6z"/>
<path class="st0" d="M602.5,692.4c0,0-0.8,5.4,7.8,4.5c8.6-0.9,3,3,3,3l-14.3,0.5l-2.7-8H602.5z"/>
<path class="st0" d="M564.7,665.8c0,0-5.6-33.4,10.8-36.6c11.9-2.3,10.1,4.9,8.4,8.7c-0.6,1.3-0.2,2.9,1,3.7l0.3,0.2c0,0,0,0,0,0
	c0.3-0.5,12.4-17.4-8.8-19.4c-24.6-2.4-21.3,43.4-21.3,43.4H564.7z"/>
<polygon points="1054.1,171.9 1157.8,108.2 1157.8,130.1 1054.1,235.3 "/>
<polygon points="950.4,47.9 897.3,-0.5 871.2,0 966,148.9 "/>
<polygon points="1157.8,317 1054.1,279.1 1054.1,298.1 1157.8,365.9 "/>
<polygon points="1157.8,37.7 1112.8,-0.5 1096.2,-0.5 1165.3,78 "/>
<ellipse cx="591.1" cy="257.3" rx="17.4" ry="30"/>
<ellipse cx="591.7" cy="287.3" rx="12" ry="13"/>
<path d="M600.2,239.7c2.3-0.5,7.4-2.3,10.8-9.3c1.1-2.2,3.3-1,3.3,1.8l-3.1,41.1c0,1.9-3.6,3.4-4.7,3l-9.8-5.3
	c-1-0.3-1.6-1.9-1.4-3.5l3.4-25.5C598.9,240.7,599.5,239.8,600.2,239.7z"/>
<path d="M588,244c-2.9-0.6-11.3-5.4-11.9-13.2c-0.2-3.1-7.1,8.1-6.9,11.2l1.9,33.7c0.2,2.9,3.5,4.6,5.9,2.9
	c5.2-3.6,12.9-9.3,17.1-14.6c0.8-0.9,1-2.2,0.7-3.3l-3.9-14C590.5,245.3,589.4,244.3,588,244z"/>
<polygon points="598.6,294.1 602.1,306.5 603.2,291.1 580.8,290.3 583.5,307.9 587.9,294.1 "/>
<ellipse class="st0" cx="242.4" cy="506.1" rx="123.3" ry="77.3"/>
<path class="st0" d="M310.1,462.1c-5.2-10.9-31.6-8.8,0.1-31.3c10.2-7.2,26.4-23.2,27.8-47.9c1.1-19.6,4.7-33.4,7.3-41.4
	c1.9-5.8,5.8-10.7,10.9-13.9c10.7-6.8,27.8-12.7,44.1,8.2c12.6,16.2,3.7,39.7-3.8,48.3c-3.7,4.2-7.5,21-7.8,26.6
	c-1.2,26.8-10.5,96.8-26.1,112.2C331.1,554.2,323.2,489.3,310.1,462.1z"/>
<path class="st0" d="M236.1,432.6c0,0-121.4-44.5-110.5,49.4C133.2,546.2,236.1,432.6,236.1,432.6z"/>
<path class="st0" d="M395.5,329c0,0,1.7-15.2,23.4-15.4c2.6,0,4.7,2.1,4.8,4.7c0.1,8.9-2.1,27.3-23.7,22.9"/>
<path class="st0" d="M355.6,324.7c-5.1-6.7-17.3-19.2-31.7-6.9c-2.8,2.4-3.4,6.7-1.4,9.9c4.4,6.8,13.6,17.3,27.1,14.1
	c2.1-0.5,3.9-2.1,4.7-4.2l2.2-5.4C357.6,329.7,357.2,326.8,355.6,324.7z"/>
<path class="st0" d="M385.6,326.9c0,0,43.8-43.3,26.1-69.1c0,0,16.5,10.7,7.2,31c0,0,7.6,1.1,12.5-5.1s-7.5,14.9-15.7,14.9
	c0,0-14.5,28.5-24.2,32.3C381.9,334.5,385.6,326.9,385.6,326.9z"/>
<path class="st0" d="M408.9,298.1c0,0-15-6.1-11.9-14.1c0,0-9,8.2,7.9,21.5L408.9,298.1z"/>
<path class="st0" d="M363.6,322c0,0-10-20.8-22.5-25.1c-5.4-1.8-12-4-17.7-6.8c-7.3-3.6-13-8.4-12.6-15c0,0-5.7,18.3,21.4,23.4
	c0,0-10.9,10.2-11.4,0c0,0-5.8,15.2,16.2,5.8c0,0,21.3,9.5,19.2,24.4C353.9,343.6,363.6,322,363.6,322z"/>
<path class="st0" d="M323.1,292.1c0,0,10.4-6.9,5.4-17.8c0,0,5.5,19.5-1.2,19.5C320.6,293.7,323.1,292.1,323.1,292.1z"/>
<path class="st0" d="M362.7,515.8c0,0,1.9,33.4,12.1,88.2c0,0-9.3,57.5-19.5,78l-0.9,15.8l-25.1-5.6c0,0,1.9-13.9,8.4-17.6
	c6.5-3.7,13-62.2,13-62.2L309.8,564L362.7,515.8z"/>
<path class="st0" d="M357.1,515.8c0,0-24.1,68.7-47.3,100.2l-0.9,74.2l-25.1,4.6L281,576.1L357.1,515.8z"/>
<path class="st0" d="M191.2,552.9l-28.8,52.9c-13,11.1-22.3-49.2-22.3-49.2L191.2,552.9z"/>
</svg>
